name analog
datacolumns 19
datarows 51
range 0.35000000000000003 0.375
endheader
time	ground_force_vx	ground_force_vy	ground_force_vz	ground_force_px	ground_force_py	ground_force_pz	l_ground_force_vx	l_ground_force_vy	l_ground_force_vz	l_ground_force_px	l_ground_force_py	l_ground_force_pz	ground_torque_x	ground_torque_y	ground_torque_z	l_ground_torque_x	l_ground_torque_y	l_ground_torque_z
0.35000000000000003	-0.0	-0.0	-0.0	14.078447341918944	28.89504814147949	-439.5093383789063	-8.92638111114502	-32.43069076538086	-435.5893249511719	-0.0	-0.0	-0.0	-0.0	-0.0	-0.0	94782.59375	10215.3466796875	-15669.8779296875
0.35050000000000003	-0.0	-0.0	-0.0	14.256826400756836	28.75050926208496	-438.563232421875	-8.98151969909668	-32.734004974365234	-436.00482177734375	-0.0	-0.0	-0.0	-0.0	-0.0	-0.0	94915.328125	10240.9306640625	-15792.0400390625
0.35100000000000003	-0.0	-0.0	-0.0	14.218332290649414	29.16255760192871	-439.7760620117188	-9.08213996887207	-32.32573699951172	-438.4682312011719	-0.0	-0.0	-0.0	-0.0	-0.0	-0.0	94916.0078125	10135.31640625	-15838.3935546875
0.35150000000000003	-0.0	-0.0	-0.0	14.171746253967283	28.81880760192871	-439.65863037109375	-9.424540519714355	-32.44766998291016	-438.9500427246094	-0.0	-0.0	-0.0	-0.0	-0.0	-0.0	95187.3671875	10471.39453125	-15885.20703125
0.352	-0.0	-0.0	-0.0	13.75545597076416	29.251792907714844	-440.4154052734375	-9.33155918121338	-32.78419876098633	-438.23583984375	-0.0	-0.0	-0.0	-0.0	-0.0	-0.0	95620.421875	10265.70703125	-15866.8818359375
0.3525	-0.0	-0.0	-0.0	13.886305809020996	29.86236000061035	-439.2735900878906	-9.095748901367188	-32.76734924316406	-437.8214416503906	-0.0	-0.0	-0.0	-0.0	-0.0	-0.0	95156.8671875	10441.8779296875	-15825.7255859375
0.353	-0.0	-0.0	-0.0	12.791399955749512	30.266605377197266	-439.8043823242188	-9.563728332519531	-32.46494674682617	-437.1378173828125	-0.0	-0.0	-0.0	-0.0	-0.0	-0.0	94753.4921875	10648.4072265625	-15843.072265625
0.3535	-0.0	-0.0	-0.0	13.185932159423828	30.73278045654297	-441.3385314941406	-9.526277542114258	-32.32573699951172	-436.29241943359375	-0.0	-0.0	-0.0	-0.0	-0.0	-0.0	94521.78125	10589.826171875	-15914.9111328125
0.354	-0.0	-0.0	-0.0	12.88647747039795	31.07477378845215	-441.75970458984375	-9.494915962219238	-32.30864334106445	-435.7412109375	-0.0	-0.0	-0.0	-0.0	-0.0	-0.0	94560.9140625	10544.5458984375	-15824.9345703125
0.3545	-0.0	-0.0	-0.0	11.916969299316406	30.945558547973636	-441.5435180664063	-9.489398956298828	-32.058128356933594	-435.6630554199219	-0.0	-0.0	-0.0	-0.0	-0.0	-0.0	94493.7265625	10743.71484375	-15914.81640625
0.355	-0.0	-0.0	-0.0	11.062103271484377	31.5000114440918	-441.828125	-9.652189254760742	-32.32347106933594	-435.9453125	-0.0	-0.0	-0.0	-0.0	-0.0	-0.0	94468.265625	10839.7451171875	-15968.5478515625
0.3555	-0.0	-0.0	-0.0	10.367863655090332	31.695571899414062	-440.5534973144531	-10.344505310058594	-32.62520980834961	-436.65228271484375	-0.0	-0.0	-0.0	-0.0	-0.0	-0.0	94446.7890625	11161.984375	-16052.2998046875
0.356	-0.0	-0.0	-0.0	10.205005645751951	31.4438533782959	-441.6202392578125	-10.448721885681152	-32.980369567871094	-436.9940185546875	-0.0	-0.0	-0.0	-0.0	-0.0	-0.0	94624.5078125	11179.0751953125	-16141.4169921875
0.3565	-0.0	-0.0	-0.0	10.437629699707031	31.73042297363281	-440.27093505859375	-10.69767951965332	-33.1554069519043	-439.4444580078125	-0.0	-0.0	-0.0	-0.0	-0.0	-0.0	94530.921875	10932.3701171875	-16195.080078125
0.357	-0.0	-0.0	-0.0	10.849567413330078	31.711700439453125	-440.0621948242188	-11.108736991882324	-32.87309646606445	-437.3492126464844	-0.0	-0.0	-0.0	-0.0	-0.0	-0.0	94407.734375	11374.650390625	-16349.4296875
0.3575	-0.0	-0.0	-0.0	11.205137252807615	31.980880737304688	-440.3453369140625	-10.645294189453123	-33.015628814697266	-436.43951416015625	-0.0	-0.0	-0.0	-0.0	-0.0	-0.0	94348.90625	11575.3935546875	-16290.033203125
0.358	-0.0	-0.0	-0.0	11.68657684326172	31.623106002807617	-441.7614135742188	-10.521309852600098	-33.08551788330078	-436.8601684570313	-0.0	-0.0	-0.0	-0.0	-0.0	-0.0	94260.3671875	11524.22265625	-16194.76171875
0.3585	-0.0	-0.0	-0.0	11.383115768432615	31.944238662719727	-439.3568115234375	-10.68065071105957	-33.261756896972656	-436.8594970703125	-0.0	-0.0	-0.0	-0.0	-0.0	-0.0	94164.6875	11655.177734375	-16165.10546875
0.359	-0.0	-0.0	-0.0	11.240524291992188	31.659278869628903	-440.9802856445313	-10.680800437927246	-33.7741813659668	-436.2298889160156	-0.0	-0.0	-0.0	-0.0	-0.0	-0.0	94113.296875	11794.501953125	-16200.8681640625
0.3595	-0.0	-0.0	-0.0	11.525656700134276	31.980329513549805	-439.3558349609375	-11.106313705444336	-33.33308792114258	-436.43951416015625	-0.0	-0.0	-0.0	-0.0	-0.0	-0.0	93943.921875	11829.2353515625	-16195.1767578125
0.36	-0.0	-0.0	-0.0	11.544107437133787	31.92664337158203	-440.201904296875	-10.645881652832031	-33.52726745605469	-438.0447082519531	-0.0	-0.0	-0.0	-0.0	-0.0	-0.0	93995.75	11913.2744140625	-16277.9521484375
0.3605	-0.0	-0.0	-0.0	11.90007495880127	31.783496856689453	-439.0741271972656	-10.768932342529297	-33.96815490722656	-437.55755615234375	-0.0	-0.0	-0.0	-0.0	-0.0	-0.0	93899.9609375	11906.9560546875	-16224.533203125
0.361	-0.0	-0.0	-0.0	11.580501556396484	32.08572769165039	-436.96002197265625	-10.538614273071287	-33.33306121826172	-437.3455505371094	-0.0	-0.0	-0.0	-0.0	-0.0	-0.0	93416.671875	12174.5390625	-16040.1708984375
0.3615	-0.0	-0.0	-0.0	12.187114715576172	32.672969818115234	-437.1648559570313	-9.901030540466309	-33.79127883911133	-434.9718933105469	-0.0	-0.0	-0.0	-0.0	-0.0	-0.0	93479.6015625	11989.1796875	-16022.13671875
0.362	-0.0	-0.0	-0.0	11.812228202819824	32.316036224365234	-433.9139099121094	-9.989916801452637	-33.79295349121094	-434.9075317382813	-0.0	-0.0	-0.0	-0.0	-0.0	-0.0	93018.8671875	12169.568359375	-15838.728515625
0.3625	-0.0	-0.0	-0.0	10.81273365020752	32.388729095458984	-435.1260070800781	-10.008185386657717	-34.284881591796875	-434.273193359375	-0.0	-0.0	-0.0	-0.0	-0.0	-0.0	92873.21875	12274.134765625	-15945.416015625
0.363	-0.0	-0.0	-0.0	10.975370407104492	32.514278411865234	-433.3616027832031	-10.042537689208984	-34.51564407348633	-433.5745849609375	-0.0	-0.0	-0.0	-0.0	-0.0	-0.0	92804.2421875	12480.9990234375	-15845.1201171875
0.3635	-0.0	-0.0	-0.0	10.280278205871582	32.412113189697266	-435.460205078125	-10.186075210571287	-34.338958740234375	-434.2625427246094	-0.0	-0.0	-0.0	-0.0	-0.0	-0.0	92651.1484375	12509.189453125	-15856.5634765625
0.364	-0.0	-0.0	-0.0	10.191441535949709	32.76313781738281	-436.66455078125	-10.642388343811035	-34.58561325073242	-435.5969848632813	-0.0	-0.0	-0.0	-0.0	-0.0	-0.0	92836.515625	12609.0068359375	-15974.6357421875
0.3645	-0.0	-0.0	-0.0	10.314751625061035	32.81513214111328	-436.5904235839844	-11.015268325805664	-34.850440979003906	-434.5617980957031	-0.0	-0.0	-0.0	-0.0	-0.0	-0.0	92877.703125	12810.658203125	-16041.419921875
0.365	-0.0	-0.0	-0.0	10.526840209960938	33.06381607055664	-437.6634216308594	-10.84115219116211	-34.728782653808594	-436.5120849609375	-0.0	-0.0	-0.0	-0.0	-0.0	-0.0	92701.734375	13041.3544921875	-16164.9375
0.3655	-0.0	-0.0	-0.0	10.014153480529783	33.123226165771484	-437.23675537109375	-11.76151180267334	-34.18049621582031	-436.4972534179688	-0.0	-0.0	-0.0	-0.0	-0.0	-0.0	92869.5859375	13036.3935546875	-16024.5341796875
0.366	-0.0	-0.0	-0.0	10.14707088470459	33.212528228759766	-438.64947509765625	-11.850106239318848	-34.89731979370117	-435.1159973144531	-0.0	-0.0	-0.0	-0.0	-0.0	-0.0	92908.328125	13263.7177734375	-16402.876953125
0.3665	-0.0	-0.0	-0.0	9.65346622467041	33.51747512817383	-436.58697509765625	-12.452388763427734	-34.72462844848633	-437.2110595703125	-0.0	-0.0	-0.0	-0.0	-0.0	-0.0	93150.546875	13463.5537109375	-16409.443359375
0.367	-0.0	-0.0	-0.0	9.5643310546875	33.95386505126953	-436.5857849121094	-12.648270606994627	-35.110130310058594	-438.13031005859375	-0.0	-0.0	-0.0	-0.0	-0.0	-0.0	93092.640625	13305.8916015625	-16557.953125
0.3675	-0.0	-0.0	-0.0	9.071972846984863	33.86955261230469	-437.4405822753906	-13.11045265197754	-34.994049072265625	-439.4884033203125	-0.0	-0.0	-0.0	-0.0	-0.0	-0.0	93076.9765625	13360.3017578125	-16594.14453125
0.368	-0.0	-0.0	-0.0	8.845394134521484	33.94514083862305	-434.7108459472656	-13.29307746887207	-35.12809753417969	-439.4339904785156	-0.0	-0.0	-0.0	-0.0	-0.0	-0.0	93330.65625	13454.244140625	-16655.376953125
0.3685	-0.0	-0.0	-0.0	8.953313827514648	34.404335021972656	-436.7333068847656	-13.548297882080078	-34.92462539672852	-439.3069763183594	-0.0	-0.0	-0.0	-0.0	-0.0	-0.0	93399.2734375	13681.4892578125	-16719.361328125
0.369	-0.0	-0.0	-0.0	9.207706451416016	34.391239166259766	-435.11767578125	-13.376426696777344	-35.25917434692383	-440.9041137695313	-0.0	-0.0	-0.0	-0.0	-0.0	-0.0	93522.78125	13462.4033203125	-16659.994140625
0.3695	-0.0	-0.0	-0.0	9.685746192932127	34.88815689086914	-434.4869384765625	-13.02768325805664	-35.946929931640625	-439.531494140625	-0.0	-0.0	-0.0	-0.0	-0.0	-0.0	93248.296875	13543.609375	-16706.55859375
0.37	-0.0	-0.0	-0.0	9.552106857299805	34.671730041503906	-434.3354797363281	-12.882099151611328	-36.31916809082031	-440.3056335449219	-0.0	-0.0	-0.0	-0.0	-0.0	-0.0	93396.78125	13821.982421875	-16560.3515625
0.3705	-0.0	-0.0	-0.0	10.265999794006348	34.49346923828125	-433.1997680664063	-13.217906951904297	-36.51484680175781	-440.8283386230469	-0.0	-0.0	-0.0	-0.0	-0.0	-0.0	93313.5078125	13770.2578125	-16522.408203125
0.371	-0.0	-0.0	-0.0	9.8902587890625	34.32236862182617	-433.8008117675781	-12.527372360229492	-36.77294158935547	-438.4114379882813	-0.0	-0.0	-0.0	-0.0	-0.0	-0.0	92963.4765625	13804.3671875	-16448.080078125
0.3715	-0.0	-0.0	-0.0	9.673370361328123	34.58259582519531	-429.3430786132813	-12.191764831542969	-36.65350341796875	-440.2046508789063	-0.0	-0.0	-0.0	-0.0	-0.0	-0.0	92840.4921875	13914.71484375	-16320.3681640625
0.372	-0.0	-0.0	-0.0	9.095468521118164	34.009090423583984	-430.72607421875	-12.292287826538086	-36.77263259887695	-438.8836059570313	-0.0	-0.0	-0.0	-0.0	-0.0	-0.0	92906.7109375	14020.3662109375	-16409.41796875
0.3725	-0.0	-0.0	-0.0	8.68427562713623	34.43516540527344	-428.8693237304688	-12.519623756408691	-36.41566848754883	-439.3536987304688	-0.0	-0.0	-0.0	-0.0	-0.0	-0.0	93002.3125	14157.0380859375	-16382.4287109375
0.373	-0.0	-0.0	-0.0	8.840096473693848	34.24555206298828	-428.6714477539063	-12.754984855651855	-36.69207000732422	-439.156494140625	-0.0	-0.0	-0.0	-0.0	-0.0	-0.0	93028.3515625	14389.28125	-16369.7548828125
0.3735	-0.0	-0.0	-0.0	8.416292190551758	34.434814453125	-430.4830322265625	-12.824176788330078	-36.80231475830078	-438.99359130859375	-0.0	-0.0	-0.0	-0.0	-0.0	-0.0	92687.6328125	14385.314453125	-16560.841796875
0.374	-0.0	-0.0	-0.0	8.603463172912598	34.02642822265625	-430.80181884765625	-13.118491172790527	-36.68357467651367	-439.38623046875	-0.0	-0.0	-0.0	-0.0	-0.0	-0.0	92887.4453125	14485.4091796875	-16485.1328125
0.3745	-0.0	-0.0	-0.0	8.40545654296875	34.41486740112305	-429.9395751953125	-13.06903076171875	-37.0262451171875	-440.4754943847656	-0.0	-0.0	-0.0	-0.0	-0.0	-0.0	93090.625	14346.3916015625	-16693.416015625
0.375	-0.0	-0.0	-0.0	8.455254554748535	34.771087646484375	-433.5110168457031	-13.414946556091309	-37.46792602539063	-443.5803833007813	-0.0	-0.0	-0.0	-0.0	-0.0	-0.0	93300.53125	14405.0419921875	-16690.25
